{"title":"The.Comic.Strip.Complete.Collection.D6.DVDRip.x264.Iou1","uid":8562694,"size":1214975295,"categoryP":"video","categoryS":"tv_shows","magnet":"?xt=urn:btih:fe4f8574c45687b7bf918102843588110d5b0976&amp;dn=The.Comic.Strip.Complete.Collection.D6.DVDRip.x264.Iou1&amp;tr=udp%3A%2F%2Ftracker.openbittorrent.com%3A80&amp;tr=udp%3A%2F%2Fopen.demonii.com%3A1337&amp;tr=udp%3A%2F%2Ftracker.coppersurfer.tk%3A6969&amp;tr=udp%3A%2F%2Fexodus.desync.com%3A6969","seeders":1,"leechers":0,"uploader":"jaybee211","files":-1,"time":1370925383,"description":"Disc 6 Of 9\n\n23.South Atlantic raiders                : 720x554 29m 35s\n24.South Atlantic Raiders Pt 2           : 720x540 28m 12s\n25.GLC                                   : 720x438 32m 43s \n26.Oxford                                : 720x556 35m 13s\n27.Spaghetti Hoops                       : 720x554 31m 48s\n\nNote. Video/Audio Bitrate varies slightly in all 5 clips\n\nFormat                                   : MPEG-4\nFile size                                : 1.13 GiB\nDuration                                 : 2h 37mn 33s\nOverall bit rate mode                    : Variable\nOverall bit rate                         : 1 081 Kbps\n\nVideo\nFormat settings, CABAC                   : Yes\nFormat settings, ReFrames                : 1 frame\nCodec ID                                 : avc1\nDuration                                 : 2h 37mn 33s\nBit rate mode                            : Variable\nBit rate                                 : 998 Kbps\nFrame rate mode                          : Constant\nFrame rate                               : 25.000 fps\nBit depth                                : 8 bits\nScan type                                : Progressive\nBits/(Pixel*Frame)                       : 0.100\nStream size                              : 1.050 GiB (93%)\nWriting library                          : x264 core\n\nAudio\nFormat                                   : AAC\nDuration                                 : 2h 37mn 33s\nBit rate mode                            : Variable\nBit rate                                 : 76.8 Kbps\nMaximum bit rate                         : 89.2 Kbps\nChannel(s)                               : 2 channels\nChannel positions                        : Front: L R\nSampling rate                            : 48.0 KHz\nCompression mode                         : Lossy\nStream size                              : 80 MiB (7%)\nLanguage                                 : English\nSubtitles                                : None\n\nIMDB. &lt;a href=&quot; http://www.imdb.com/title/tt0083402/&quot; rel=&quot;nofollow&quot; target=&quot;_NEW&quot;&gt; http://www.imdb.com/title/tt0083402/&lt;/a&gt;\n\nScreens. &lt;a href=&quot; http://bayimg.com/jANOBaaEC&quot; rel=&quot;nofollow&quot; target=&quot;_NEW&quot;&gt; http://bayimg.com/jANOBaaEC&lt;/a&gt;\n\n         &lt;a href=&quot; http://bayimg.com/JaNOCaAEC&quot; rel=&quot;nofollow&quot; target=&quot;_NEW&quot;&gt; http://bayimg.com/JaNOCaAEC&lt;/a&gt;\n\n         &lt;a href=&quot; http://bayimg.com/JANOEaAec&quot; rel=&quot;nofollow&quot; target=&quot;_NEW&quot;&gt; http://bayimg.com/JANOEaAec&lt;/a&gt;\n\n         &lt;a href=&quot; http://bayimg.com/JanofaaeC&quot; rel=&quot;nofollow&quot; target=&quot;_NEW&quot;&gt; http://bayimg.com/JanofaaeC&lt;/a&gt;\n\n         &lt;a href=&quot; http://bayimg.com/JANoIAaeC&quot; rel=&quot;nofollow&quot; target=&quot;_NEW&quot;&gt; http://bayimg.com/JANoIAaeC&lt;/a&gt;\n   \nEnjoy.","torrent":{"xt":"urn:btih:fe4f8574c45687b7bf918102843588110d5b0976","amp;dn":"The.Comic.Strip.Complete.Collection.D6.DVDRip.x264.Iou1","amp;tr":["udp%3A%2F%2Ftracker.openbittorrent.com%3A80","udp%3A%2F%2Fopen.demonii.com%3A1337","udp%3A%2F%2Ftracker.coppersurfer.tk%3A6969","udp%3A%2F%2Fexodus.desync.com%3A6969"],"infoHash":"fe4f8574c45687b7bf918102843588110d5b0976","infoHashBuffer":{"type":"Buffer","data":[254,79,133,116,196,86,135,183,191,145,129,2,132,53,136,17,13,91,9,118]},"announce":[],"urlList":[]}}